<svg xmlns="http://www.w3.org/2000/svg" viewBox="0 0 248 248"><g id="Calque_2" data-name="Calque 2"><g id="Calque_1-2" data-name="Calque 1"><path d="M123.79,248C55.25,247.79-.21,192.18,0,123.69A124,124,0,0,1,124.42,0a113,113,0,0,1,22.22,2.08L142.07,27a108.53,108.53,0,0,0-18.28-1.66,98.68,98.68,0,1,0,98.87,98.58,100.28,100.28,0,0,0-1-13.7l25.13-3.53A118.89,118.89,0,0,1,248,123.9C247.79,192.38,192.13,248,123.79,248" style="fill:#2c282a"/><path d="M123.69,39.35A84.66,84.66,0,1,0,208.41,124a84.69,84.69,0,0,0-84.72-84.65M94.51,80.91q10.62-11.41,27.6-11.41,26.14,0,35.86,23.14,5.52,13.11,5.53,34.52,0,20.78-5.3,34.67-10.11,26.46-37.12,26.46a37.87,37.87,0,0,1-23.14-7.62q-10.26-7.62-11.77-22.24H108.6a13.58,13.58,0,0,0,4.27,8.22,13.25,13.25,0,0,0,9.24,3.16q11.13,0,15.64-12.32,2.44-6.8,3.08-19.83a24.24,24.24,0,0,1-6.56,5.92q-6.32,3.79-15.56,3.8a35.37,35.37,0,0,1-24.24-9.44q-10.59-9.44-10.59-27.21,0-18.41,10.63-29.82m37.87,45.46q7.65-4.91,7.66-17,0-9.72-4.54-15.41T123.06,88.3a15.46,15.46,0,0,0-9.88,3.24q-6.47,5.05-6.47,17.13,0,10.2,4.14,15.29t12.76,5.09a15.74,15.74,0,0,0,8.77-2.68" style="fill:#2c282a"/><rect width="248" height="248" style="fill:none"/></g></g></svg>