<svg xmlns="http://www.w3.org/2000/svg" viewBox="0 0 326.79 51.31"><g id="Calque_2" data-name="Calque 2"><g id="Calixa-Lavallée"><path d="M72.44,0l-.13,5.11A11.45,11.45,0,0,0,63.5,8.34a9.27,9.27,0,0,0,0,13.32,9.81,9.81,0,0,0,4.34,2.63,8.7,8.7,0,0,0,4.8,0A9.88,9.88,0,0,0,77,21.66a10,10,0,0,0,2.37-3.58,14.92,14.92,0,0,0,.75-5.17l5.19.12A19.72,19.72,0,0,1,84.1,20.1a16,16,0,0,1-3.6,5.25,14.39,14.39,0,0,1-10.41,4.59,14.16,14.16,0,0,1-10.36-4.52,14.39,14.39,0,0,1-3.89-6.54A14,14,0,0,1,56,11.4a15.21,15.21,0,0,1,4-6.73A16.06,16.06,0,0,1,72.44,0Z"/><path d="M102.28,9.33h5.15V29.9h-5.15V27.73a10,10,0,0,1-3,2.06,8.51,8.51,0,0,1-3.3.63A9.17,9.17,0,0,1,89,27.33a10.75,10.75,0,0,1-2.91-7.68A11,11,0,0,1,89,11.85a9,9,0,0,1,6.84-3,8.79,8.79,0,0,1,3.48.69,9.55,9.55,0,0,1,3,2.07Zm-5.43,4.18a5.24,5.24,0,0,0-4,1.7,6.15,6.15,0,0,0-1.59,4.37A6.22,6.22,0,0,0,92.9,24a5.22,5.22,0,0,0,4,1.73,5.32,5.32,0,0,0,4-1.7,6.25,6.25,0,0,0,1.61-4.46,6,6,0,0,0-1.61-4.37A5.37,5.37,0,0,0,96.85,13.51Z"/><path d="M162,9.33h5.15V29.9H162V27.73a10,10,0,0,1-3,2.06,8.5,8.5,0,0,1-3.29.63,9.2,9.2,0,0,1-6.91-3.09,10.79,10.79,0,0,1-2.9-7.68,11,11,0,0,1,2.81-7.8,9,9,0,0,1,6.84-3A8.79,8.79,0,0,1,159,9.5a9.44,9.44,0,0,1,3,2.07Zm-5.42,4.18a5.25,5.25,0,0,0-4,1.7A6.15,6.15,0,0,0,151,19.58,6.21,6.21,0,0,0,152.6,24a5.24,5.24,0,0,0,4,1.73,5.34,5.34,0,0,0,4-1.7,6.24,6.24,0,0,0,1.6-4.46,6,6,0,0,0-1.6-4.37A5.39,5.39,0,0,0,156.56,13.51Z"/><path d="M213.57,9.33h5.15V29.9h-5.15V27.73a10,10,0,0,1-3,2.06,8.5,8.5,0,0,1-3.29.63,9.17,9.17,0,0,1-6.9-3.09,10.75,10.75,0,0,1-2.91-7.68,11,11,0,0,1,2.81-7.8,9,9,0,0,1,6.84-3,8.79,8.79,0,0,1,3.48.69,9.44,9.44,0,0,1,3,2.07Zm-5.42,4.18a5.25,5.25,0,0,0-4,1.7,6.19,6.19,0,0,0-1.58,4.37A6.21,6.21,0,0,0,204.19,24a5.24,5.24,0,0,0,4,1.73,5.34,5.34,0,0,0,4.05-1.7,6.24,6.24,0,0,0,1.6-4.46,6,6,0,0,0-1.6-4.37A5.39,5.39,0,0,0,208.15,13.51Z"/><path d="M256.4,9.33h5.15V29.9H256.4V27.73a10,10,0,0,1-3,2.06,8.51,8.51,0,0,1-3.3.63,9.16,9.16,0,0,1-6.89-3.09,10.75,10.75,0,0,1-2.91-7.68,11,11,0,0,1,2.81-7.8,9,9,0,0,1,6.85-3,8.77,8.77,0,0,1,3.47.69,9.44,9.44,0,0,1,3,2.07ZM251,13.51a5.25,5.25,0,0,0-4,1.7,6.15,6.15,0,0,0-1.58,4.37A6.21,6.21,0,0,0,247,24a5.24,5.24,0,0,0,4,1.73,5.34,5.34,0,0,0,4-1.7,6.28,6.28,0,0,0,1.6-4.46,6.08,6.08,0,0,0-1.6-4.37A5.39,5.39,0,0,0,251,13.51Z"/><path d="M110.62,1.42h5.15V29.9h-5.15Z"/><path d="M121.71.9a3.15,3.15,0,0,1,2.33,1,3.25,3.25,0,0,1,1,2.36,3.19,3.19,0,0,1-1,2.34,3.09,3.09,0,0,1-2.29,1,3.17,3.17,0,0,1-2.35-1,3.28,3.28,0,0,1-1-2.39,3.14,3.14,0,0,1,1-2.31A3.19,3.19,0,0,1,121.71.9Z" style="fill:#c23114"/><path d="M291.23.9a3.14,3.14,0,0,1,2.33,1,3.25,3.25,0,0,1,1,2.36,3.18,3.18,0,0,1-1,2.34,3.11,3.11,0,0,1-2.3,1,3.15,3.15,0,0,1-2.34-1,3.25,3.25,0,0,1-1-2.39,3.15,3.15,0,0,1,1-2.31A3.15,3.15,0,0,1,291.23.9Z" style="fill:#c23114"/><rect x="119.13" y="9.33" width="5.15" height="20.56"/><path d="M126.33,9.33h6l4.06,5.61,4-5.61h5.89l-7,9.68,7.89,10.89h-6l-4.88-6.75-4.86,6.75H125.6l7.79-10.82Z"/><path d="M170,17.28h9.61v4.79H170Z"/><path d="M183.68,2.11H189V24.87h7.79v5H183.68Z"/><path d="M220.39,9.33h5.28l5.19,12.14,5.2-12.14h5.26L232.5,29.9h-3.32Z"/><path d="M265.4,1.42h5.16V29.9H265.4Z"/><path d="M273.9,1.42h5.15V29.9H273.9Z"/><path d="M294.19,13.82l-7.88,7.89a6.63,6.63,0,0,1-.53-3.19A6.25,6.25,0,0,1,287.61,15a5.76,5.76,0,0,1,3.21-1.71A5.07,5.07,0,0,1,294.19,13.82Zm4.39,5.23h0A6.77,6.77,0,0,1,296.53,24a5.92,5.92,0,0,1-3.72,1.87A5.59,5.59,0,0,1,289,24.72L300.66,13l-.68-.7a11.16,11.16,0,0,0-7.93-3.64,10.59,10.59,0,0,0-7.76,3.39,10.15,10.15,0,0,0-3.17,7.56,10.75,10.75,0,0,0,3.39,7.67,10.41,10.41,0,0,0,7.54,3.26,10.58,10.58,0,0,0,7.71-3.39,12,12,0,0,0,3-4.58,9.7,9.7,0,0,0,.48-3.55Z"/><path d="M321.88,19.05h0A6.8,6.8,0,0,1,319.83,24a6,6,0,0,1-3.72,1.87,5.59,5.59,0,0,1-3.84-1.14L324,13l-.67-.7a11.18,11.18,0,0,0-7.93-3.64,10.59,10.59,0,0,0-7.76,3.39,10.11,10.11,0,0,0-3.17,7.56,10.74,10.74,0,0,0,3.38,7.67,10.43,10.43,0,0,0,7.55,3.26,10.58,10.58,0,0,0,7.71-3.39,12.16,12.16,0,0,0,3-4.58,9.7,9.7,0,0,0,.48-3.55Zm-12.8-.53A6.25,6.25,0,0,1,310.91,15a5.8,5.8,0,0,1,3.21-1.71,5.07,5.07,0,0,1,3.37.52l-7.89,7.89A6.6,6.6,0,0,1,309.08,18.52Z"/></g><g id="logo"><circle cx="23.95" cy="24.37" r="4.79" style="fill:#c23114"/><path d="M26,9.52l-.13,5.1A11.52,11.52,0,0,0,17,17.81a9.3,9.3,0,0,0,0,13.33,10,10,0,0,0,4.34,2.63,8.7,8.7,0,0,0,4.8,0,9.88,9.88,0,0,0,4.33-2.6,10.08,10.08,0,0,0,2.37-3.58,15.25,15.25,0,0,0,.75-5.17l5.19.11a19.68,19.68,0,0,1-1.16,7.07A16.13,16.13,0,0,1,34,34.82a14.41,14.41,0,0,1-10.41,4.6A14.2,14.2,0,0,1,13.25,34.9a14.42,14.42,0,0,1-3.89-6.55,14,14,0,0,1,.14-7.48,15.13,15.13,0,0,1,3.95-6.72,15.68,15.68,0,0,1,5.71-3.66A15.85,15.85,0,0,1,26,9.52Z"/><path d="M5.33,24.37A18.63,18.63,0,1,1,24,43c-.62,0-1.23,0-1.84-.09v5.34c.61,0,1.22.08,1.84.08A24,24,0,1,0,0,24.37c0,.63,0,1.26.08,1.87H5.42C5.36,25.63,5.33,25,5.33,24.37Z"/></g><g id="Centre_de_formation_professionnelle" data-name="Centre de formation professionnelle"><g id="Centre_de_formation_professionnelle-2" data-name="Centre de formation professionnelle"><path d="M64.93,36.33l-.15,1.1a4.72,4.72,0,0,0-2.25.23,5,5,0,0,0-1.94,1.24,4.89,4.89,0,0,0-1.29,2.2,4.55,4.55,0,0,0,0,2.48,4.83,4.83,0,0,0,1.29,2.17A4.58,4.58,0,0,0,64,47.18a5.16,5.16,0,0,0,4.94-5.62l1.1-.15a5.55,5.55,0,0,1-.31,2.64,6.46,6.46,0,0,1-1.56,2.38,5.77,5.77,0,0,1-4.65,1.88,5.87,5.87,0,0,1-3.82-1.81A5.55,5.55,0,0,1,58,42.36a5.92,5.92,0,0,1,1.86-4.23,6.17,6.17,0,0,1,2.43-1.56A5.44,5.44,0,0,1,64.93,36.33Z"/><path d="M81.25,40h1.07v1.48a4.36,4.36,0,0,1,1.41-1.26,3.43,3.43,0,0,1,1.68-.42,2.86,2.86,0,0,1,2.7,1.74A6.87,6.87,0,0,1,88.45,44v4.25H87.37V44.34a9.9,9.9,0,0,0-.11-1.91,2.08,2.08,0,0,0-.7-1.24,2.14,2.14,0,0,0-1.36-.41,2.57,2.57,0,0,0-1.72.64,3,3,0,0,0-1,1.58,11.14,11.14,0,0,0-.15,2.25v3H81.25Z"/><path d="M91.41,36.93h1.07V40h1.69v.91H92.48v7.36H91.41V40.92H90V40h1.46Z"/><path d="M95.62,40h1.07v1.21a3.92,3.92,0,0,1,1-1.07,2.07,2.07,0,0,1,1.13-.34,1.94,1.94,0,0,1,1,.28l-.56.9a1.42,1.42,0,0,0-.57-.15,1.55,1.55,0,0,0-1,.44,2.66,2.66,0,0,0-.76,1.35,13.18,13.18,0,0,0-.2,2.86v2.79H95.62Z"/><path d="M123.33,36.81V48.28h-1.07V46.86a4.49,4.49,0,0,1-1.5,1.22,4.07,4.07,0,0,1-1.81.41,4,4,0,0,1-3-1.27,4.27,4.27,0,0,1-1.25-3.1,4.19,4.19,0,0,1,1.26-3,4.07,4.07,0,0,1,3-1.26,3.83,3.83,0,0,1,1.83.43,4.23,4.23,0,0,1,1.45,1.3V36.81Zm-4.26,4a3.19,3.19,0,0,0-1.63.44,3.1,3.1,0,0,0-1.19,1.22,3.37,3.37,0,0,0,0,3.33,3.25,3.25,0,0,0,1.2,1.24,3.07,3.07,0,0,0,1.61.44,3.24,3.24,0,0,0,1.65-.44,3.07,3.07,0,0,0,1.19-1.18,3.42,3.42,0,0,0,.42-1.69,3.26,3.26,0,0,0-.94-2.39A3.09,3.09,0,0,0,119.07,40.84Z"/><path d="M143.59,36.82v1a2.48,2.48,0,0,0-1-.25,1,1,0,0,0-.5.12.51.51,0,0,0-.25.3,3.61,3.61,0,0,0-.06.88V40h1.7v.91h-1.7v7.36h-1.08V40.92h-1.09V40h1.09V38.72a3.47,3.47,0,0,1,.16-1.27,1.35,1.35,0,0,1,.55-.61,1.75,1.75,0,0,1,.94-.24A4.21,4.21,0,0,1,143.59,36.82Z"/><path d="M149,39.81a4.12,4.12,0,0,1,3.17,1.38,4.42,4.42,0,0,1-.07,6,4.36,4.36,0,0,1-6.21,0,4.42,4.42,0,0,1-.06-6A4.06,4.06,0,0,1,149,39.81Zm0,1a3.06,3.06,0,0,0-2.27,1,3.28,3.28,0,0,0-1,2.37,3.36,3.36,0,0,0,.44,1.67,3,3,0,0,0,1.16,1.19,3.32,3.32,0,0,0,3.23,0,3.11,3.11,0,0,0,1.17-1.19,3.35,3.35,0,0,0,.43-1.67,3.28,3.28,0,0,0-.95-2.37A3.05,3.05,0,0,0,149,40.84Z"/><path d="M154.86,40h1.08v1.21a3.92,3.92,0,0,1,1-1.07,2.07,2.07,0,0,1,1.13-.34,1.9,1.9,0,0,1,.94.28l-.55.9a1.46,1.46,0,0,0-.57-.15,1.57,1.57,0,0,0-1,.44,2.72,2.72,0,0,0-.75,1.35,12.55,12.55,0,0,0-.2,2.86v2.79h-1.08Z"/><path d="M160.37,40h1.07v1.43a4.2,4.2,0,0,1,1.14-1.16,3.38,3.38,0,0,1,1.7-.47,2.94,2.94,0,0,1,1.14.23,2.51,2.51,0,0,1,.88.63,3.25,3.25,0,0,1,.59,1.12,4.09,4.09,0,0,1,1.33-1.48,3.17,3.17,0,0,1,1.7-.5,2.67,2.67,0,0,1,1.51.43,2.54,2.54,0,0,1,1,1.21,6.51,6.51,0,0,1,.32,2.33v4.5h-1.08v-4.5a6.18,6.18,0,0,0-.18-1.83,1.7,1.7,0,0,0-.65-.8,1.89,1.89,0,0,0-1.09-.31,2.33,2.33,0,0,0-1.41.46,2.55,2.55,0,0,0-.93,1.21,7.6,7.6,0,0,0-.3,2.54v3.23H166V44.05a7.41,7.41,0,0,0-.19-2,1.66,1.66,0,0,0-.65-.85,1.82,1.82,0,0,0-1.1-.33,2.32,2.32,0,0,0-1.37.45,2.55,2.55,0,0,0-.95,1.19,6.59,6.59,0,0,0-.31,2.3v3.5h-1.07Z"/><path d="M183.23,40v8.27h-1.07V46.86a4.43,4.43,0,0,1-1.51,1.22,4.07,4.07,0,0,1-1.81.41,4,4,0,0,1-3-1.27,4.27,4.27,0,0,1-1.25-3.1,4.22,4.22,0,0,1,1.25-3,4.12,4.12,0,0,1,3-1.26,3.91,3.91,0,0,1,1.85.43,4.1,4.1,0,0,1,1.45,1.29V40Zm-4.27.83a3.2,3.2,0,0,0-1.64.44,3.1,3.1,0,0,0-1.19,1.22,3.37,3.37,0,0,0,0,3.33,3.25,3.25,0,0,0,1.2,1.24,3.08,3.08,0,0,0,1.62.44,3.24,3.24,0,0,0,1.65-.44,3,3,0,0,0,1.2-1.18,3.42,3.42,0,0,0,.42-1.69,3.3,3.3,0,0,0-.94-2.39A3.11,3.11,0,0,0,179,40.84Z"/><path d="M186.59,36.93h1.07V40h1.69v.91h-1.69v7.36h-1.07V40.92h-1.46V40h1.46Z"/><path d="M190.67,36.86a.84.84,0,0,0-.26.63.82.82,0,0,0,.26.62.85.85,0,0,0,.61.26.86.86,0,0,0,.63-.26.82.82,0,0,0,.26-.62.84.84,0,0,0-.26-.63.86.86,0,0,0-.63-.26A.85.85,0,0,0,190.67,36.86Zm.08,11.42h1.08V40h-1.08Z"/><path d="M197.94,39.81a4.08,4.08,0,0,1,3.16,1.38,4.4,4.4,0,0,1-.06,6,4.36,4.36,0,0,1-6.21,0,4.39,4.39,0,0,1-.06-6A4.08,4.08,0,0,1,197.94,39.81Zm0,1a3.06,3.06,0,0,0-2.27,1,3.28,3.28,0,0,0-.95,2.37,3.46,3.46,0,0,0,.43,1.67,3.11,3.11,0,0,0,1.17,1.19,3.32,3.32,0,0,0,3.23,0,3.11,3.11,0,0,0,1.17-1.19,3.35,3.35,0,0,0,.43-1.67,3.28,3.28,0,0,0-1-2.37A3.05,3.05,0,0,0,197.94,40.84Z"/><path d="M204.23,40h1.08v1.48a4.33,4.33,0,0,1,1.4-1.26,3.5,3.5,0,0,1,1.69-.42,2.83,2.83,0,0,1,1.63.47,2.8,2.8,0,0,1,1.06,1.27,6.87,6.87,0,0,1,.34,2.48v4.25h-1.08V44.34a9.9,9.9,0,0,0-.11-1.91,2,2,0,0,0-.69-1.24,2.19,2.19,0,0,0-1.37-.41,2.59,2.59,0,0,0-1.72.64,3,3,0,0,0-1,1.58,11.14,11.14,0,0,0-.15,2.25v3h-1.08Z"/><path d="M218,40h1.08v1.52a4,4,0,0,1,1.45-1.29,3.86,3.86,0,0,1,1.83-.43,4.09,4.09,0,0,1,3,1.26,4.19,4.19,0,0,1,1.26,3,4.3,4.3,0,0,1-1.24,3.1,4.2,4.2,0,0,1-4.82.86,4.45,4.45,0,0,1-1.5-1.23v4.46H218Zm4.27.83a3.07,3.07,0,0,0-2.31,1,3.26,3.26,0,0,0-.95,2.39,3.32,3.32,0,0,0,.43,1.69,3,3,0,0,0,1.2,1.18,3.24,3.24,0,0,0,1.65.44,3.07,3.07,0,0,0,1.61-.44,3.25,3.25,0,0,0,1.2-1.24,3.37,3.37,0,0,0,0-3.33A3.1,3.1,0,0,0,224,41.28,3.22,3.22,0,0,0,222.31,40.84Z"/><path d="M228.26,40h1.07v1.21a3.92,3.92,0,0,1,1-1.07,2.07,2.07,0,0,1,1.13-.34,1.87,1.87,0,0,1,.94.28l-.55.9a1.42,1.42,0,0,0-.56-.15,1.59,1.59,0,0,0-1,.44,2.88,2.88,0,0,0-.75,1.35,13.18,13.18,0,0,0-.2,2.86v2.79h-1.07Z"/><path d="M237.19,39.81a4.1,4.1,0,0,1,3.17,1.38,4.42,4.42,0,0,1-.07,6,4.35,4.35,0,0,1-6.2,0,4.41,4.41,0,0,1-.07-6A4.09,4.09,0,0,1,237.19,39.81Zm0,1a3.07,3.07,0,0,0-2.27,1,3.27,3.27,0,0,0-.94,2.37,3.35,3.35,0,0,0,.43,1.67,3.11,3.11,0,0,0,1.17,1.19,3.17,3.17,0,0,0,1.61.42,3.21,3.21,0,0,0,1.62-.42A3.11,3.11,0,0,0,240,45.86a3.46,3.46,0,0,0,.43-1.67,3.25,3.25,0,0,0-1-2.37A3.05,3.05,0,0,0,237.19,40.84Z"/><path d="M246.89,36.82v1a2.48,2.48,0,0,0-1-.25,1,1,0,0,0-.51.12.54.54,0,0,0-.25.3,3.85,3.85,0,0,0-.05.88V40h1.7v.91h-1.7v7.36H244V40.92h-1.09V40H244V38.72a3.42,3.42,0,0,1,.17-1.27,1.27,1.27,0,0,1,.54-.61,1.78,1.78,0,0,1,.94-.24A4.21,4.21,0,0,1,246.89,36.82Z"/><path d="M262.65,40.9l-.68.71a2.48,2.48,0,0,0-1.68-.83,1.28,1.28,0,0,0-.89.34,1.07,1.07,0,0,0-.38.8,1.2,1.2,0,0,0,.31.77,4.45,4.45,0,0,0,1.28.88,4.84,4.84,0,0,1,1.63,1.18,2.17,2.17,0,0,1,.41,1.31,2.32,2.32,0,0,1-.71,1.72,2.47,2.47,0,0,1-1.79.71,3.26,3.26,0,0,1-1.37-.31,3,3,0,0,1-1.07-.86l.67-.76a2.32,2.32,0,0,0,1.72.91,1.53,1.53,0,0,0,1.09-.41,1.26,1.26,0,0,0,.15-1.78A4.55,4.55,0,0,0,260,44.4a4.25,4.25,0,0,1-1.52-1.13,2.15,2.15,0,0,1-.41-1.28,2.07,2.07,0,0,1,.65-1.56,2.22,2.22,0,0,1,1.63-.62A3.43,3.43,0,0,1,262.65,40.9Z"/><path d="M268.7,40.9l-.68.71a2.52,2.52,0,0,0-1.69-.83,1.32,1.32,0,0,0-.89.34,1.06,1.06,0,0,0-.37.8,1.15,1.15,0,0,0,.31.77,4.3,4.3,0,0,0,1.28.88,4.78,4.78,0,0,1,1.62,1.18,2.18,2.18,0,0,1,.42,1.31,2.33,2.33,0,0,1-.72,1.72,2.43,2.43,0,0,1-1.79.71,3.22,3.22,0,0,1-1.36-.31,3.05,3.05,0,0,1-1.08-.86l.67-.76a2.33,2.33,0,0,0,1.73.91,1.54,1.54,0,0,0,1.09-.41,1.26,1.26,0,0,0,.15-1.78,4.86,4.86,0,0,0-1.34-.88,4.3,4.3,0,0,1-1.53-1.13,2.14,2.14,0,0,1-.4-1.28,2.06,2.06,0,0,1,.64-1.56,2.25,2.25,0,0,1,1.64-.62A3.43,3.43,0,0,1,268.7,40.9Z"/><path d="M271,36.6a.88.88,0,0,1,.63.26.87.87,0,0,1,.25.63.84.84,0,0,1-.25.62.88.88,0,0,1-.63.26.89.89,0,0,1-.88-.88.88.88,0,0,1,.26-.63A.85.85,0,0,1,271,36.6ZM270.43,40h1.07v8.27h-1.07Z"/><path d="M277.61,39.81a4.1,4.1,0,0,1,3.17,1.38,4.43,4.43,0,0,1-.06,6,4.36,4.36,0,0,1-6.21,0,4.41,4.41,0,0,1-.07-6A4.09,4.09,0,0,1,277.61,39.81Zm0,1a3,3,0,0,0-2.26,1,3.24,3.24,0,0,0-1,2.37,3.35,3.35,0,0,0,.43,1.67A3,3,0,0,0,276,47.05a3.3,3.3,0,0,0,3.22,0,3,3,0,0,0,1.17-1.19,3.36,3.36,0,0,0,.44-1.67,3.25,3.25,0,0,0-1-2.37A3,3,0,0,0,277.61,40.84Z"/><path d="M283.91,40H285v1.48a4.26,4.26,0,0,1,1.41-1.26,3.43,3.43,0,0,1,1.68-.42,2.89,2.89,0,0,1,1.64.47,2.78,2.78,0,0,1,1.05,1.27A6.66,6.66,0,0,1,291.1,44v4.25H290V44.34a10.83,10.83,0,0,0-.11-1.91,2.08,2.08,0,0,0-.7-1.24,2.16,2.16,0,0,0-1.36-.41,2.57,2.57,0,0,0-1.72.64,3,3,0,0,0-1,1.58,11.14,11.14,0,0,0-.15,2.25v3h-1.07Z"/><path d="M293.4,40h1.08v1.48a4.26,4.26,0,0,1,1.41-1.26,3.43,3.43,0,0,1,1.68-.42,2.83,2.83,0,0,1,1.63.47,2.8,2.8,0,0,1,1.06,1.27A6.66,6.66,0,0,1,300.6,44v4.25h-1.07V44.34a10.83,10.83,0,0,0-.11-1.91,2.08,2.08,0,0,0-.7-1.24,2.16,2.16,0,0,0-1.36-.41,2.59,2.59,0,0,0-1.73.64,3,3,0,0,0-1,1.58,11.14,11.14,0,0,0-.15,2.25v3H293.4Z"/><path d="M312.86,36.81h1.08V48.28h-1.08Z"/><path d="M316,36.81h1.07V48.28H316Z"/><path d="M78.56,43.13a4.76,4.76,0,0,1,.15,1.29,3.31,3.31,0,0,1-.31,1.13,3.41,3.41,0,0,1-.71,1,2.9,2.9,0,0,1-2.2.9,3.35,3.35,0,0,1-2.33-1l5.27-5.26a4.5,4.5,0,0,0-2.64-1.35,4.07,4.07,0,0,0-3.52,1.26,3.94,3.94,0,0,0-1.22,3.42,4.53,4.53,0,0,0,4.22,4,3.91,3.91,0,0,0,3.17-1.3,4.55,4.55,0,0,0,1-1.35,4,4,0,0,0,.35-1.49,4.06,4.06,0,0,0-.13-1.22Zm-6.49.7a3.06,3.06,0,0,1,.92-2A3.46,3.46,0,0,1,74.21,41a2.88,2.88,0,0,1,1.34-.18,3.56,3.56,0,0,1,1.4.52l-4.36,4.36A3.58,3.58,0,0,1,72.07,43.83Z"/><path d="M106.93,43.13a4.33,4.33,0,0,1,.14,1.29,3.07,3.07,0,0,1-.3,1.13,3.63,3.63,0,0,1-.72,1,2.88,2.88,0,0,1-2.2.9,3.31,3.31,0,0,1-2.32-1l5.26-5.26a4.44,4.44,0,0,0-2.64-1.35,4.08,4.08,0,0,0-3.52,1.26,4,4,0,0,0-1.22,3.42,4.53,4.53,0,0,0,4.23,4,3.93,3.93,0,0,0,3.17-1.3,4.55,4.55,0,0,0,1-1.35,4,4,0,0,0,.35-1.49,4.83,4.83,0,0,0-.13-1.22Zm-6.5.7a3.07,3.07,0,0,1,.93-2,3.34,3.34,0,0,1,1.21-.77,2.9,2.9,0,0,1,1.34-.18,3.51,3.51,0,0,1,1.4.52L101,45.73A3.51,3.51,0,0,1,100.43,43.83Z"/><path d="M132.09,43.13a4.76,4.76,0,0,1,.15,1.29,3.31,3.31,0,0,1-.31,1.13,3.6,3.6,0,0,1-.71,1,2.91,2.91,0,0,1-2.21.9,3.34,3.34,0,0,1-2.32-1L132,41.19a4.44,4.44,0,0,0-2.64-1.35,4.08,4.08,0,0,0-3.52,1.26,4,4,0,0,0-1.21,3.42,4.4,4.4,0,0,0,1.3,2.66,4.45,4.45,0,0,0,2.92,1.31,3.91,3.91,0,0,0,3.17-1.3,4.55,4.55,0,0,0,1-1.35,4,4,0,0,0,.35-1.49,4.06,4.06,0,0,0-.13-1.22Zm-6.49.7a3.06,3.06,0,0,1,.92-2,3.42,3.42,0,0,1,1.21-.77,2.94,2.94,0,0,1,1.35-.18,3.62,3.62,0,0,1,1.4.52l-4.36,4.36A3.49,3.49,0,0,1,125.6,43.83Z"/><path d="M255.29,43.13a4.76,4.76,0,0,1,.15,1.29,3.31,3.31,0,0,1-.31,1.13,3.81,3.81,0,0,1-.71,1,2.92,2.92,0,0,1-2.21.9,3.32,3.32,0,0,1-2.32-1l5.26-5.26a4.44,4.44,0,0,0-2.64-1.35A4.08,4.08,0,0,0,249,41.1a4,4,0,0,0-1.21,3.42,4.38,4.38,0,0,0,1.29,2.66A4.49,4.49,0,0,0,252,48.49a3.91,3.91,0,0,0,3.17-1.3,4.55,4.55,0,0,0,1-1.35,4,4,0,0,0,.35-1.49,4.42,4.42,0,0,0-.13-1.22Zm-6.5.7a3.11,3.11,0,0,1,.93-2,3.38,3.38,0,0,1,1.22-.77,2.84,2.84,0,0,1,1.33-.18,3.65,3.65,0,0,1,1.41.52l-4.36,4.36A3.51,3.51,0,0,1,248.79,43.83Z"/><path d="M310,43.13a4.39,4.39,0,0,1,.15,1.29,3.31,3.31,0,0,1-.31,1.13,3.41,3.41,0,0,1-.71,1,2.9,2.9,0,0,1-2.2.9,3.31,3.31,0,0,1-2.32-1l5.26-5.26a4.5,4.5,0,0,0-2.64-1.35,4.07,4.07,0,0,0-3.52,1.26,3.94,3.94,0,0,0-1.22,3.42,4.53,4.53,0,0,0,4.22,4,3.91,3.91,0,0,0,3.17-1.3,4.37,4.37,0,0,0,1-1.35,4,4,0,0,0,.35-1.49,4.06,4.06,0,0,0-.13-1.22Zm-6.49.7a3.06,3.06,0,0,1,.92-2,3.38,3.38,0,0,1,1.22-.77,2.88,2.88,0,0,1,1.34-.18,3.56,3.56,0,0,1,1.4.52L304,45.73A3.58,3.58,0,0,1,303.47,43.83Z"/><path d="M325.6,43.13a4.76,4.76,0,0,1,.15,1.29,3.31,3.31,0,0,1-.31,1.13,3.81,3.81,0,0,1-.71,1,2.91,2.91,0,0,1-2.21.9,3.34,3.34,0,0,1-2.32-1l5.26-5.26a4.44,4.44,0,0,0-2.64-1.35,4.09,4.09,0,0,0-3.52,1.26,4,4,0,0,0-1.21,3.42,4.44,4.44,0,0,0,1.29,2.66,4.49,4.49,0,0,0,2.93,1.31,3.91,3.91,0,0,0,3.17-1.3,4.55,4.55,0,0,0,1-1.35,4,4,0,0,0,.35-1.49,4.42,4.42,0,0,0-.13-1.22Zm-6.5.7a3.07,3.07,0,0,1,.93-2,3.42,3.42,0,0,1,1.21-.77,2.92,2.92,0,0,1,1.34-.18,3.51,3.51,0,0,1,1.4.52l-4.35,4.36A3.6,3.6,0,0,1,319.1,43.83Z"/></g></g></g></svg>