<svg xmlns="http://www.w3.org/2000/svg" viewBox="0 0 249 249"><g id="Calque_2" data-name="Calque 2"><g id="Calque_1-2" data-name="Calque 1"><g id="Calque_1-2-2" data-name="Calque 1-2"><path d="M124.29,248.5C55.75,248.29.29,192.68.5,124.19A124,124,0,0,1,124.81.5h.11a113.47,113.47,0,0,1,22.22,2.08L142.57,27.5a108.72,108.72,0,0,0-18.28-1.66,98.68,98.68,0,1,0,98.87,98.58,99.76,99.76,0,0,0-1-13.7l25.13-3.53a119.38,119.38,0,0,1,1.21,17.21c-.21,68.48-55.87,124.1-124.21,124.1" style="fill:none;stroke:#2c282a;stroke-miterlimit:10"/><path d="M124.19,39.85a84.66,84.66,0,1,0,84.72,84.65,84.66,84.66,0,0,0-84.72-84.65M95,81.41Q105.63,70,122.61,70q26.14,0,35.86,23.14Q164,106.25,164,127.66q0,20.79-5.3,34.67-10.11,26.46-37.12,26.46a37.85,37.85,0,0,1-23.14-7.62q-10.26-7.62-11.77-22.24H109.1a13.59,13.59,0,0,0,4.27,8.22,13.27,13.27,0,0,0,9.24,3.16q11.13,0,15.64-12.32,2.44-6.8,3.08-19.83a24.07,24.07,0,0,1-6.56,5.92q-6.32,3.79-15.56,3.8A35.36,35.36,0,0,1,95,138.44Q84.38,129,84.38,111.23q0-18.41,10.63-29.82m37.87,45.46q7.65-4.91,7.66-17,0-9.72-4.54-15.41T123.56,88.8A15.46,15.46,0,0,0,113.68,92q-6.47,5.05-6.47,17.13,0,10.2,4.14,15.29t12.76,5.09a15.65,15.65,0,0,0,8.77-2.68" style="fill:none;stroke:#2c282a;stroke-miterlimit:10"/></g></g></g></svg>