<?xml version="1.0" encoding="utf-8"?>
<!-- Generator: Adobe Illustrator 16.0.3, SVG Export Plug-In . SVG Version: 6.00 Build 0)  -->
<!DOCTYPE svg PUBLIC "-//W3C//DTD SVG 1.1 Basic//EN" "http://www.w3.org/Graphics/SVG/1.1/DTD/svg11-basic.dtd">
<svg version="1.1" baseProfile="basic" id="Layer_1"
	 xmlns="http://www.w3.org/2000/svg" xmlns:xlink="http://www.w3.org/1999/xlink" x="0px" y="0px" width="720px" height="283.46px"
	 viewBox="0 0 720 283.46" xml:space="preserve">
<g>
	<g>
		<path fill="#439142" d="M356.032,226.382c0-8.659-8.116-17.128-13.972-19.416c-5.859-2.284-8.714-2.377-14.652-1.896
			c-4.463,0.363-8.771,1.979-11.519,5.689c-2.743,3.71-3.509,12.992-1.386,19.221c1.051,3.066,4.268,6.066,6.268,8.127
			c2.101,2.168,5.369,4.832,10.223,6.078c8.587,2.207,13.653-1.446,16.262-2.916C349.871,239.794,356.356,234.923,356.032,226.382z
			 M341.547,235.058c-1.189,0.793-2.105,1.25-3.637,1.189c-1.246-0.057-2.268-0.096-3.412-0.396
			c-6.632-1.732-7.318-9.117-7.185-17.533c-0.006,0.26-0.179-2.145,3.731-2.137c4.48,0.006,7.056,2.578,7.988,3.992
			c0.475,0.717,3.022,3.672,3.402,7.684C342.82,231.862,342.793,234.225,341.547,235.058z"/>
		<path fill="#439142" d="M579.718,226.382c0-8.659-8.111-17.128-13.972-19.416c-5.854-2.284-8.709-2.377-14.652-1.896
			c-4.458,0.363-8.771,1.979-11.514,5.689c-2.742,3.71-3.514,12.992-1.385,19.221c1.045,3.066,4.268,6.066,6.268,8.127
			c2.101,2.168,5.363,4.832,10.217,6.078c8.592,2.207,13.659-1.446,16.268-2.916C573.557,239.794,580.042,234.923,579.718,226.382z
			 M565.238,235.058c-1.195,0.793-2.111,1.25-3.637,1.189c-1.246-0.057-2.268-0.096-3.413-0.396
			c-6.637-1.732-7.318-9.117-7.185-17.533c-0.005,0.26-0.184-2.145,3.732-2.137c4.475,0.006,7.05,2.578,7.982,3.992
			c0.475,0.717,3.027,3.672,3.408,7.684C566.506,231.862,566.484,234.225,565.238,235.058z"/>
		<g>
			<path fill="#439142" d="M243.463,191.126c-0.91,0.313-1.82,0.9-2.642,1.525c-1.47,1.115-3.569,3.375-3.626,5.059
				c-0.05,1.458,2.279,3.075,2.699,3.688c0.451,0.662,1.301,1.275,1.988,1.594c0.815,0.381,2.021,0.695,2.91,0.713
				c0.928,0.02,4.307,0.125,5.212-0.109c1.671-0.427,2.637-0.79,4.039-1.904c0.659-0.522,1.687-1.273,2.101-2.033
				c0.43-0.797,1.346-2.961,1.29-3.836c-0.234-3.652-1.569-4.086-2.167-4.605c-0.832-0.721-2.006-1.514-3.805-1.791
				C249.089,189.06,244.346,190.831,243.463,191.126z"/>
			<path fill="#439142" d="M245.457,209.181c0.721,0.082,3.279-0.139,3.783-0.014c1.34,0.344,1.775,1.979,1.775,3.38
				c0,1.288-2.485,26.728-2.715,27.364c-0.469,1.341-1.084,2.357-2.055,3.273c-0.928,0.872-2.369,1.514-3.548,1.665
				c-1.067,0.14-2.078,0.246-3.201,0.206c-0.692-0.021-1.005-0.027-1.514-0.603c-0.564-0.637-0.877-1.548-1.128-2.363
				c-0.749-2.419-0.582-3.675-0.52-5.508c0.078-2.173,1.418-20.259,3.089-22.873C240.145,212.583,243.246,208.931,245.457,209.181z"
				/>
		</g>
		<g>
			<path fill="#439142" d="M517.465,191.132c-0.916,0.313-1.827,0.9-2.648,1.52c-1.469,1.117-3.569,3.375-3.625,5.062
				c-0.051,1.458,2.279,3.075,2.697,3.687c0.453,0.665,1.303,1.273,1.989,1.592c0.815,0.383,2.028,0.699,2.911,0.716
				c0.927,0.017,4.307,0.126,5.211-0.106c1.671-0.43,2.637-0.793,4.039-1.908c0.659-0.521,1.688-1.271,2.101-2.03
				c0.436-0.799,1.347-2.966,1.29-3.837c-0.234-3.654-1.569-4.087-2.167-4.604c-0.833-0.724-2.005-1.518-3.804-1.793
				C523.084,189.063,518.342,190.831,517.465,191.132z"/>
			<path fill="#439142" d="M519.453,209.185c0.721,0.08,3.279-0.143,3.781-0.014c1.342,0.343,1.777,1.977,1.777,3.379
				c0,1.291-2.486,26.725-2.715,27.361c-0.47,1.341-1.078,2.363-2.057,3.279c-0.927,0.866-2.368,1.514-3.547,1.665
				c-1.066,0.134-2.078,0.24-3.201,0.206c-0.692-0.027-1.005-0.033-1.514-0.604c-0.564-0.637-0.877-1.547-1.129-2.368
				c-0.748-2.413-0.58-3.675-0.52-5.508c0.079-2.173,1.42-20.256,3.096-22.87C514.141,212.587,517.241,208.931,519.453,209.185z"/>
		</g>
		<path fill="#439142" d="M127.683,224.613c-0.29-2.685-3.419-22.396-3.877-29.786c-0.212-3.324-1.525-8.689-4.413-8.768
			c-2.967-0.078-5.693,3.365-6.933,4.961c-1.123,1.449-34.624,44.238-34.528,48.963c0.021,0.9-0.073,3.637,0.691,4.285
			c0.543,0.464,3.156,0.676,3.838,0.525c1.073-0.24,2.447-1.754,3.112-2.508c1.106-1.258,8.894-14.497,9.999-14.898
			c1.52-0.559,9.29-1.548,10.871-1.582c1.531-0.033,8.05-1.457,11.251,2.525c3.491,4.352,1.524,16.826,6.837,16.843
			c1.994,0,2.028-3.687,2.464-5.111c0.671-2.207,1.347-4.005,1.329-6.245C128.309,231.476,127.934,226.94,127.683,224.613z
			 M113.645,216.419c-0.587-0.297-1.264-0.381-1.9-0.479c-1.178-0.182-1.893-0.098-2.871-0.111c-1.771-0.031-5.77,0.43-5.687,0.352
			c0.776-0.408,6.491-7.479,6.949-7.804c0.659-0.47,1.905-0.721,2.357,0.078C113.019,209.388,113.822,215.952,113.645,216.419z"/>
		<path fill="#439142" d="M185.489,209.823c-2.235-2.08-5.882-0.604-8.413-0.125c-4.82,0.913-9.514-2.165-14.401-0.729
			c-7.972,2.338-10.882,5.382-15.536,12.155c-3.826,5.575-9.088,10.904-6.105,18.099c2.916,7.033,13.525,6.967,19.568,5.135
			c-7.965,12.993-18.004,9.256-30.327,13.295c-6.999,2.296-0.653,7.458,3.575,7.894c7.256,0.754,15.273-0.38,22.121-2.833
			c12.396-4.445,18.838-13.021,22.25-25.127C179.607,232.666,188.729,212.841,185.489,209.823
			C183.769,208.221,186.947,211.181,185.489,209.823z M170.328,222.644c-1.263,6.151-2.928,9.877-7.692,13.967
			c-3.284,2.826-10.765,7.765-11.458-0.146c-0.363-4.201,3.827-9.038,6.185-12.206C159.033,222.011,171.758,215.698,170.328,222.644
			C170.037,224.08,170.607,221.31,170.328,222.644z"/>
		<path fill="#439142" d="M199.449,243.821c-0.91-0.637-3.184-4.49-3.715-5.229c-1.33-1.871-1.263-5.301-1.017-7.569
			c0.425-3.865,1.821-13.041,2.212-14.81c0.414-1.846,1.022-3.167,1.776-4.891c1.062-2.449,4.71-6.652,7.592-5.594
			c2,0.731,1.491,2.715,1.458,4.561c-0.012,0.545-0.363,2.527-0.027,2.975c0.407,0.553,1.547-0.03,2.111-0.156
			c1.889-0.419,14.826-3.05,16.781-3.011c1.982,0.039,2.748-0.212,2.748,1.849c-0.006,3.688-0.698,4.022-3.871,5.889
			c-2.101,1.231-10.888,4.475-13.334,5.278c-0.994,0.327-2.872,1.151-3.844,1.503c-1.156,0.419-1.252,1.982-1.38,3.156
			c-0.347,3.229-0.536,4.29-0.81,6.748C205.823,237.331,203.645,248.899,199.449,243.821z"/>
		<path fill="#439142" d="M268.244,206.009c1.536,1.485,1.771,3.191,3.268,4.784c1.771,1.892,2.559,0.731,3.576,0.048
			c1.195-0.805,1.441-1.785,2.598-2.67c2.1-1.604,4.882-2.621,7.597-2.363c1.833,0.173,3.894,1.027,5.524,1.977
			c0.922,0.534,8.105,4.838,9.805,7.308c2.446,3.562,3.128,7.304,3.58,11.524c0.308,2.883,0.174,8.81-0.105,10.838
			c-0.464,3.401-4.782,11.529-5.978,11.848c-1.162,0.308-2.721,0.464-3.938,0.297c-1.967-0.274-2.056-6.766-2.051-8.883
			c0.006-2.346,0.051-1.698,0.073-4.039c0.045-4,0.626-8.01-0.151-12.477c-0.475-2.721-1.352-7.566-5.016-7.65
			c-3.318-0.078-5.502,3.801-6.826,6.352c-1.168,2.251-2.771,4.346-3.934,6.637c-1.324,2.608-1.922,5.48-2.569,8.313
			c-0.284,1.24-0.402,3.016-1.05,4.122c-0.604,1.039-2.096,1.922-3.067,2.632c-1.407,1.027-5.033,0.932-5.229,0.826
			c-1.329-0.76-1.71-4.212-1.788-5.608c-0.262-4.637-0.078-21.591-0.29-25.78c-0.162-3.234-0.944-9.318,4.224-8.855
			c0.647,0.057,1.256,0.107,1.643,0.719L268.244,206.009z"/>
		<path fill="#439142" d="M594.488,206.009c1.536,1.485,1.771,3.191,3.268,4.784c1.776,1.892,2.559,0.731,3.575,0.048
			c1.195-0.805,1.441-1.785,2.598-2.67c2.101-1.604,4.882-2.621,7.597-2.363c1.833,0.173,3.895,1.027,5.525,1.977
			c0.922,0.534,8.105,4.838,9.805,7.308c2.451,3.562,3.127,7.304,3.58,11.524c0.313,2.883,0.174,8.81-0.101,10.838
			c-0.47,3.401-4.782,11.529-5.983,11.848c-1.161,0.308-2.72,0.464-3.938,0.297c-1.967-0.274-2.057-6.766-2.051-8.883
			c0.006-2.346,0.051-1.698,0.078-4.039c0.039-4,0.621-8.01-0.156-12.477c-0.475-2.721-1.352-7.566-5.016-7.65
			c-3.313-0.078-5.498,3.801-6.827,6.352c-1.167,2.251-2.771,4.346-3.933,6.637c-1.318,2.608-1.922,5.48-2.57,8.313
			c-0.279,1.24-0.401,3.016-1.049,4.122c-0.604,1.039-2.096,1.922-3.067,2.632c-1.407,1.027-5.033,0.932-5.229,0.826
			c-1.323-0.76-1.709-4.212-1.787-5.608c-0.263-4.637-0.078-21.591-0.291-25.78c-0.162-3.234-0.943-9.318,4.224-8.855
			c0.653,0.057,1.257,0.107,1.647,0.719L594.488,206.009z"/>
		<path fill="#439142" d="M389.07,229.437c2.379-0.637,15.01-19.207,16.77-20.624c1.781-1.438,7.318-6.508,9.318-2.676
			c1.574,3.014-1.906,8.072-3.353,10.522c-2.323,3.94-17.591,24.755-19.457,25.939c-2.101,1.335-5.017,1.988-7.479,1.491
			c-2.979-0.603-21.715-23.607-22.748-26.136c-0.933-2.279,1.084-12.038,2.654-13.074c1.569-1.045,3.826-0.321,5.368,0.533
			c1.91,1.059,2.938,5.713,4.239,7.41C375.836,214.706,386.556,229.555,389.07,229.437z"/>
		<path fill="#439142" d="M455.301,212.354c-0.788-1.559-6.307-7.391-11.352-7.58c-3.994-0.148-8.91,0.005-12.475,2.029
			c-1.871,1.064-3.961,2.567-5.664,4.225c-1.14,1.108-1.072,5.633,0.234,5.873c2.396,0.895,7.721-2.475,13.1-2.32
			c1.955,0.055,3.994,0.885,4.458,2.723c0.458,1.785,0.431,5.324-0.709,5.424c-1.731,0.151-8.821-0.701-10.905-0.79
			c-2.418-0.103-5.094-0.117-7.262,0.729c-1.859,0.723-3.559,1.729-5.084,3.089c-1.475,1.318-3.083,3.921-3.356,6.067
			c-0.207,1.625-0.162,4.854,0.47,6.307c2.809,6.508,17.635,7.475,20.016,7.278c2.631-0.224,8.004-2.563,9.73-2.731
			c1.682-0.162,4.754,2.838,6.257,1.318c1.017-1.033,0.843-2.85,0.843-4.201c0.006-2.452,1.615-18.915,1.934-21.267
			C455.764,216.841,456.094,213.921,455.301,212.354z M440.402,237.219c-1.106-0.017-10.263-0.117-11.988-1.095
			c-0.537-0.648-0.531-2.006-0.386-3.195c0.117-0.934,0.833-2.57,1.353-3.162c0.485-0.541,1.687-3.173,12.953-1.871
			C444.094,228.157,443.016,237.253,440.402,237.219z"/>
		<path fill="#439142" d="M478.601,209.93c-1.497,0.087-11.374,1.821-11.915,1.872c-1.352,0.111-2.85,5.809-2.279,6.6
			c0.279,0.395,0.933,0.512,1.34,0.685c0.274,0.114,2.096,0.349,4.258,0.399c3.357,0.075,7.463-0.025,7.904-0.025
			c1.072-0.002-1.15,15.373-1.162,18.826c-0.012,2.217-0.453,4.849,0.039,6.898c0.464,1.949,10.066-0.81,10.922-4.05
			c1.055-4.017,1.229-21.711,3.061-21.714c1.592,0,4.737-1.104,5.916-1.266c4.324-0.6,5.793-0.344,6.508-2.957
			c0.279-1.006,0.615-2.604,0.425-3.592c-0.257-1.297-1.452-1.115-2.637-1.285c-1.637-0.234-7.815-0.302-8.53-0.185
			c-0.676,0.112-2.027,0.093-2.056-0.671c-0.039-1.02,1.401-15.396-0.386-15.396c-6.329,0.015-7.955,2.69-8.524,3.446
			c-0.782,1.043-0.827,2.353-0.995,3.582c-0.256,1.813-1.172,7.043-1.451,8.709L478.601,209.93z"/>
		<g>
			<path fill="#2070B0" d="M206.867,172.563c-6.273,1.176-6.887,1.793-29.216,1.793c-20.3,0-35.45-11.161-35.45-24.953
				c0-16.458,12.133-35.055,22.272-48.627c3.072-4.27,5.866-9.242,9.826-9.242c2.269,0.357,5.966,2.189,6.631,3.081
				c3.854,3.153,0.257,10.444-0.548,12.673c-10.568,21.271-15.658,37.299-7.406,43.371c7.406,4.748,23.545,3.422,26.277-4.142
				c1.318-3.665,7.559-23.669,8.401-25.622c1.106-2.569,1.749-5.5,3.095-7.882c1.269-2.251,4.324-3.44,5.592-5.712
				c1.553-2.776,3.185-5.188,5.105-7.721c1.979-2.613,4.369-7.105,8.067-6.951c6.687,0.275,8.134,3.362,6.128,16.071l-2.218,31.185
				C230.805,166.131,216.75,170.661,206.867,172.563z"/>
			<path fill="#2070B0" d="M346.949,111.087c-2.614-5.793-7.771-9.88-10.927-12.006c-3.179-2.133-10.452-7.588-18.714-7.588
				c-13.541,0-22.155,5.044-26.1,3.122c-2.485-1.21,0.939-8.88,2.838-13.487c1.944-4.693,11.865-26.317,11.955-27.002
				c0.424-3.125-4.748-6.779-8.82-6.779c-3.492,0-35.345,27.264-35.345,49.668c0,2.438-6.899,62.561-6.899,64.935
				c0,8.028,9.189,12.111,11.966,12.505c7.692,1.098,20.206-3.394,28.177-7.125c12.352-5.779,40.082-25.859,45.618-30.816
				C345.871,131.878,349.854,117.519,346.949,111.087z M321.135,124.446c-5.245,5.729-21.361,17.717-29.607,20.152
				c-2.721,0.805-4.854-0.067-5.559-2c-1.156-3.195-0.1-11.631-0.1-13.176c0-0.902,1.379-10.951,1.643-11.772
				c0.223-0.698,0.826-2.067,1.932-2.542c0,0,15.318-6.324,29.027-4.335c5.631,0.821,5.625,5.536,5.631,6.734
				C324.118,120.718,322.123,123.368,321.135,124.446z"/>
			<path fill="#2070B0" d="M455.73,135.426c0-18.061-17.691-35.735-30.456-40.501c-12.765-4.768-18.987-4.963-31.937-3.955
				c-9.721,0.758-19.117,4.123-25.1,11.865c-5.977,7.743-7.653,27.105-3.021,40.088c2.284,6.404,9.307,12.658,13.664,16.963
				c4.58,4.521,11.697,10.077,22.271,12.678c18.726,4.6,29.764-3.014,35.457-6.086C442.295,163.407,456.429,153.237,455.73,135.426z
				 M424.162,153.515c-2.603,1.662-4.598,2.617-7.926,2.482c-2.716-0.109-4.944-0.198-7.441-0.82
				c-14.463-3.612-15.955-19.02-15.658-36.571c-0.012,0.542-0.396-4.475,8.133-4.46c9.76,0.014,15.374,5.379,17.407,8.326
				c1.034,1.496,6.592,7.664,7.425,16.023C426.928,146.855,426.877,151.782,424.162,153.515z"/>
			<path fill="#2070B0" d="M488.55,69.134c-1.793,0.611-3.569,1.757-5.173,2.972c-2.877,2.185-6.977,6.603-7.095,9.899
				c-0.101,2.849,4.464,6.014,5.279,7.211c0.883,1.293,2.553,2.492,3.894,3.115c1.598,0.745,3.961,1.362,5.688,1.396
				c1.814,0.035,8.43,0.242,10.199-0.213c3.258-0.838,5.151-1.547,7.895-3.727c1.29-1.024,3.301-2.488,4.111-3.975
				c0.844-1.561,2.631-5.795,2.52-7.502c-0.453-7.147-3.072-7.994-4.24-9.005c-1.626-1.413-3.916-2.966-7.441-3.505
				C499.543,65.089,490.271,68.547,488.55,69.134z"/>
			<path fill="#2070B0" d="M494.912,104.437c1.414,0.162,6.42-0.274,7.402-0.025c2.62,0.67,3.475,3.865,3.469,6.608
				c0,0.76-2.91,5.798-3.541,12.502c-1.459,15.571-3.928,40.138-4.234,41.009c-0.922,2.629-2.117,4.617-4.027,6.41
				c-1.811,1.701-4.626,2.961-6.928,3.254c-2.095,0.269-4.072,0.48-6.268,0.402c-1.357-0.045-1.967-0.056-2.955-1.173
				c-1.111-1.246-1.721-3.025-2.213-4.632c-1.463-4.723-1.139-7.186-1.016-10.77c0.111-3.086,1.524-22.58,3.541-34.981
				c0.766-4.679,4.084-8.349,4.982-9.748C484.533,111.092,490.595,103.944,494.912,104.437z"/>
			<path fill="#2070B0" d="M592.427,95.777c-3.76-1.263-7.944-1.643-11.972-1.522c-43.975,1.307-58.047,8.352-57.957,24.13
				c0.011,2.081,0.692,4.134,1.82,5.88c1.47,2.276,2.766,3.682,4.754,5.299c3.877,3.158,13.943,10.094,17.893,12.699
				c3.146,1.992,6,5.215,6.18,9.24c0.128,2.883-2.983,8.039-6.961,9.197c-1.983,0.878-24.943,6.59-26.596,8.279
				c-1.034,1.057-0.677,2.003-0.068,3.193c1.073,2.105,4.112,1.971,6.072,2.094c5.754,0.369,11.553,0.201,17.318,0.201
				c30.109,0,37.171-10.479,38.752-12.004c5.251-5.042,5.329-14.898,3.988-18.229c-3.061-7.631-17.574-11.656-26.115-15.156
				c-3.028-1.239-7.91-2.703-7.91-7.91c0-3.603,4.161-5.396,7.463-5.876c4.938-0.721,32.361-4.911,34.49-5.368
				c3.239-0.693,5.066-2.106,5.066-5.978C598.645,99.528,595.583,96.836,592.427,95.777z"/>
			<path fill="#2070B0" d="M127.973,85.51c-3.418-2.637-7.039-5.843-10.631-8.204c-8.301-5.457-16.814-9.6-26.104-12.915
				c-6.637-2.368-36.127-11.429-39.697-12.259c-1.865-0.436-3.676-0.905-5.446-1.643c-3.631-1.517-6.954-2.916-11.089-2.461
				c-3.217,0.355-5.089,2.562-7.156,4.925c-5.496,6.292-17.306,94.231-19.121,112.985c0,3.164,0.859,6.814,4.111,8.418
				c38.439,3.227,61.936-12.689,85.168-27.68c19.514-14.262,36.702-23.281,36.702-43.518
				C134.582,95.007,133.012,89.392,127.973,85.51z M103.092,106.015c-0.581,10.636-10.413,17.42-19.926,24.177
				c-9.078,6.446-29.295,20.987-39.574,20.987c-3.603,0-5.401-3.008-5.401-4.172c0-2.357-0.407,1.787,1.044-5.721l12.302-57.039
				c1.195-3.829,2.407-5.212,5.111-4.673c26.523,6.464,38.389,12.175,43.779,17.784
				C102.751,100.177,103.304,102.551,103.092,106.015z"/>
		</g>
		<g>
			<path fill="#2070B0" d="M689.496,219.929c-19.89,12.595-10.979,25.547-0.061,27.262c17.909,2.805,21.842-31.384,15.627-51.248
				C705.063,195.942,706.244,209.338,689.496,219.929"/>
		</g>
	</g>
	<path fill="#429538" d="M690.371,98.657c-5.425-13.592-13.338-26.463-24.17-35.842c-10.75-9.314-22.462-11.379-34.464-9.82
		c-5.634,0.731-10.978,2.933-16.58,3.898c-1.808,0.308-4.179-0.814-6.03-1.943c-8.201-5-48.656-27.948-56.997-32.507
		c-5.204-2.849-10.608,0.872-10.566,6.413c0.009,1.273,1.598,3.776,2.564,3.978c31.411,6.407,127.411,57.645,148.622,128.501
		c-20.732-37.66-58.926-72.764-91.182-94.503c-3.972,8.22-7.329,16.53-9.209,25.196c0.434,0.104,0.871,0.16,1.302,0.288
		c0.578,0.173,1.117,0.422,1.651,0.677c10.549,2.521,10.82,18.627,0.832,21.887c-1.324,0.614-2.86,0.986-4.611,1.027
		c0.176,1.182,0.359,2.36,0.614,3.531c0.405,1.862,0.94,3.681,1.514,5.499c0.147,0.472,0.196,0.735,0.308,0.88
		c3.643,10.868,10.729,19.552,18.968,26.691c16.005,13.865,34.132,21.331,52.718,26.83c9.922,2.936,19.993,4.754,29.996,7.101
		c1.862,0.437,7.111,1.598,9.484,11.371C709.674,179.457,706.789,139.786,690.371,98.657z"/>
</g>
</svg>
