<svg xmlns="http://www.w3.org/2000/svg" viewBox="0 0 511.96 607"><g id="Calque_2" data-name="Calque 2"><g id="Capa_1" data-name="Capa 1"><path d="M113.44,266.56a14.63,14.63,0,0,1-1.67-10,30.47,30.47,0,0,0-6.85-26.28,15.07,15.07,0,0,1-3-13.61,20.61,20.61,0,0,0-18.71-25.58,20.64,20.64,0,0,0-21.32,25.58,15.07,15.07,0,0,1-3,13.61A30.55,30.55,0,0,0,52,256.51a14.63,14.63,0,0,1-1.67,10.06,36,36,0,1,0,63.08,0Z" style="fill:#c6e873"/><path d="M219.71,369.25V264c0-78.51,63.87-142.38,142.38-142.38S504.46,185.47,504.46,264V369.25Z" style="fill:#4a80aa"/><path d="M476.77,369.25H247.4V264a114.69,114.69,0,1,1,229.37,0V369.25Z" style="fill:#f2f9ff"/><path d="M362.09,121.6a142.42,142.42,0,0,0-32.67,3.79c62.82,14.8,109.71,71.32,109.71,138.59V369.25h65.33V264c0-78.51-63.87-142.38-142.37-142.38Z" style="fill:#365e7d"/><path d="M476.77,369.25H247.4V264a114.69,114.69,0,1,1,229.37,0V369.25Z" style="fill:#f2f9ff"/><path d="M383.73,151.33A142.24,142.24,0,0,1,439.13,264V369.25h37.64V264a114.73,114.73,0,0,0-93-112.65Z" style="fill:#e2f4ff"/><path d="M327.4,259.27h69.37v110H327.4Z" style="fill:#e2f4ff"/><path d="M7.5,381.15V372a16.84,16.84,0,0,1,15-16.74c63.19-7,312.46-27,481.59,71.82l.39.65v64.3c0,6.87-6.17,12.44-13.77,12.44H467.17l-.29-.31C304.66,375.64,7.56,381.15,7.5,381.15Z" style="fill:#9bc43d"/><path d="M504.46,357.24V492.06c0,6.87-6.17,12.44-13.77,12.44H21.27c-7.61,0-13.77-5.57-13.77-12.44v-118a16.84,16.84,0,0,1,16.84-16.84Z" style="fill:#a8d340"/><path d="M7.5,381.15V372a16.84,16.84,0,0,1,15-16.74c63.19-7,312.46-27,481.59,71.82l.39.65v64.3c0,6.87-6.17,12.44-13.77,12.44H467.17l-.29-.31C304.66,375.64,7.56,381.15,7.5,381.15Z" style="fill:#9bc43d"/><path d="M7.5,407.53s156.93,23.92,283.25,97H143.34l-.31-.31C72.24,460.77,7.52,437.76,7.5,437.76Z" style="fill:#9bc43d"/><circle cx="143.34" cy="68.38" r="27.2" style="fill:#ffd064"/><path d="M143.34,22.66a7.5,7.5,0,0,0,7.5-7.5V7.5a7.5,7.5,0,0,0-15,0v7.66A7.5,7.5,0,0,0,143.34,22.66Z"/><path d="M135.84,121.6v7.66a7.5,7.5,0,0,0,15,0V121.6a7.5,7.5,0,0,0-15,0Z"/><path d="M181,38.25a7.48,7.48,0,0,0,5.3-2.2l5.42-5.42A7.5,7.5,0,0,0,181.08,20l-5.41,5.41A7.51,7.51,0,0,0,181,38.25Z"/><path d="M100.4,100.71,95,106.13a7.5,7.5,0,1,0,10.6,10.6l5.42-5.41a7.5,7.5,0,1,0-10.61-10.61Z"/><path d="M189.06,68.38a7.5,7.5,0,0,0,7.5,7.5h7.66a7.5,7.5,0,1,0,0-15h-7.66A7.5,7.5,0,0,0,189.06,68.38Z"/><path d="M82.46,75.88h7.66a7.5,7.5,0,1,0,0-15H82.46a7.5,7.5,0,0,0,0,15Z"/><path d="M175.67,100.71a7.5,7.5,0,0,0,0,10.61l5.41,5.41a7.5,7.5,0,0,0,10.61-10.6l-5.42-5.42a7.49,7.49,0,0,0-10.6,0Z"/><path d="M100.4,36.05A7.5,7.5,0,1,0,111,25.44L105.59,20A7.5,7.5,0,1,0,95,30.63Z"/><path d="M143.34,103.08a34.7,34.7,0,1,0-34.7-34.7A34.74,34.74,0,0,0,143.34,103.08Zm0-54.4a19.7,19.7,0,1,1-19.7,19.7A19.73,19.73,0,0,1,143.34,48.68Z"/><path d="M362.09,114.1c-82.65,0-149.88,67.23-149.88,149.87v7.28a7.5,7.5,0,0,0,15,0V264c0-74.37,60.5-134.87,134.87-134.87S497,189.6,497,264v85.76H484.27V264a121.56,121.56,0,0,0-10-48.52,7.36,7.36,0,0,0-.59-1.35A122.37,122.37,0,0,0,362.1,141.79h0a122.35,122.35,0,0,0-111.53,72.32,7.91,7.91,0,0,0-.6,1.36A121.5,121.5,0,0,0,239.89,264v81.3q-6.3-.54-12.68-1V306.66a7.5,7.5,0,0,0-15,0v36.58a1171.83,1171.83,0,0,0-122.81-.61V326.79A43.5,43.5,0,0,0,120,262.93a7.17,7.17,0,0,1-.89-4.87,38,38,0,0,0-8.54-32.75,7.62,7.62,0,0,1-1.37-6.86,28.14,28.14,0,1,0-54.59,0,7.63,7.63,0,0,1-1.37,6.87,38,38,0,0,0-8.55,32.74,7.24,7.24,0,0,1-.89,4.89,43.49,43.49,0,0,0,30.61,63.84v16.65c-23.29,1.38-41.52,3.16-52.76,4.41A24.33,24.33,0,0,0,0,372v215C0,598.05,9.54,607,21.27,607H490.69c11.73,0,21.27-9,21.27-19.94V264c0-82.64-67.23-149.87-149.88-149.87Zm7.49,43a107.32,107.32,0,0,1,85.24,53.23H369.58Zm0,68.22H462A106.57,106.57,0,0,1,469.27,264V281.5h-65V266.77h2.94a7.5,7.5,0,0,0,0-15H369.58Zm99.7,71.23v53.24h-65V296.5Zm-80-29.73v83H334.9v-83ZM354.59,157.05v53.23H269.35A107.32,107.32,0,0,1,354.59,157.05ZM254.9,264a106.55,106.55,0,0,1,7.23-38.7h92.46v26.49H317a7.5,7.5,0,0,0,0,15h2.94V281.5h-65Zm0,32.52h65v53.24H281.31q-13-1.69-26.41-3.07V296.5ZM53.49,286.21a28.51,28.51,0,0,1,3.43-16A22.09,22.09,0,0,0,59.37,255a23.1,23.1,0,0,1,5.17-19.82,22.57,22.57,0,0,0,4.62-20.34A13.14,13.14,0,0,1,81.9,198.5q.42,0,.84,0A13.24,13.24,0,0,1,95,210.94a12.93,12.93,0,0,1-.37,3.88,22.57,22.57,0,0,0,4.62,20.34,23,23,0,0,1,5.66,15.11,23.34,23.34,0,0,1-.49,4.72,22,22,0,0,0,2.45,15.19,28.51,28.51,0,1,1-53.39,16ZM21.27,497c-3.4,0-6.27-2.26-6.27-4.94V448.61A820.34,820.34,0,0,1,116.05,497Zm124.37,0A828.19,828.19,0,0,0,15,432.54V416.42c31.67,5.7,145,28.67,246.28,80.58ZM497,492.06c0,2.68-2.87,4.94-6.27,4.94H469.86a416.42,416.42,0,0,0-67.24-42.38A7.5,7.5,0,0,0,395.8,468a420.1,420.1,0,0,1,48.78,29H292.74c-65.5-37.56-138.81-61.83-189-75.61C61.26,409.72,28.3,403.48,15,401.17V388.62a1098.35,1098.35,0,0,1,111.45,6.79c114.39,12.64,192.56,38.47,238,57.92a7.49,7.49,0,1,0,5.9-13.78c-84.08-36-178.27-52-242.48-59.07A1109.9,1109.9,0,0,0,15,373.63V372a9.33,9.33,0,0,1,8.31-9.28c148-16.5,343.07-5.72,473.65,68.93Zm0-77.55c-38.68-21.1-83.25-37.72-133.39-49.77H497Z"/><path d="M56.06,528.44H66.61a.88.88,0,0,1,.64.26.86.86,0,0,1,.26.64V580a.82.82,0,0,1-.26.63.84.84,0,0,1-.64.26H56a.82.82,0,0,1-.63-.26.83.83,0,0,1-.27-.63v-30.1q0-.3-.15-.3c-.1,0-.2.07-.29.22L48.2,560.11a1.07,1.07,0,0,1-1.05.6H41.83a1.07,1.07,0,0,1-1-.6l-6.51-10.4c-.1-.15-.2-.23-.3-.23s-.15.1-.15.3V580a.89.89,0,0,1-.9.89H22.29a.89.89,0,0,1-.9-.89V529.34a.89.89,0,0,1,.9-.9H32.85a1.18,1.18,0,0,1,1,.6l10.4,16.32q.23.45.45,0L55,529A1.07,1.07,0,0,1,56.06,528.44Z" style="fill:#ffd064"/><path d="M83.72,579.24a17.48,17.48,0,0,1-7.15-6.85A20.21,20.21,0,0,1,74,562.14v-15a19.75,19.75,0,0,1,2.54-10.07,17.58,17.58,0,0,1,7.15-6.81,24.64,24.64,0,0,1,21.38,0,17.56,17.56,0,0,1,7.19,6.81,19.75,19.75,0,0,1,2.54,10.07v15a20.21,20.21,0,0,1-2.54,10.25,17.47,17.47,0,0,1-7.19,6.85,22.65,22.65,0,0,1-10.71,2.44A22.43,22.43,0,0,1,83.72,579.24Zm16.47-10.52a8.58,8.58,0,0,0,2.21-6.21V547a8.67,8.67,0,0,0-2.21-6.18,8.22,8.22,0,0,0-11.53,0,8.71,8.71,0,0,0-2.2,6.18v15.5a8.62,8.62,0,0,0,2.2,6.21,8.3,8.3,0,0,0,11.53,0Z" style="fill:#ffd064"/><path d="M151.33,528.7a.9.9,0,0,1,.64-.26H162.6a.89.89,0,0,1,.9.9V580a.89.89,0,0,1-.9.89H152.42a1.07,1.07,0,0,1-1-.6l-17.22-28.6q-.15-.23-.3-.18t-.15.33l.07,28.16a.89.89,0,0,1-.89.89H122.24a.89.89,0,0,1-.89-.89V529.34a.89.89,0,0,1,.89-.9H132.5a1.07,1.07,0,0,1,1.05.6l17.15,28.53c.1.15.19.21.3.19s.15-.14.15-.34l-.08-28.08A.9.9,0,0,1,151.33,528.7Z" style="fill:#ffd064"/><path d="M217.22,530.54a14.8,14.8,0,0,1,6.06,5.88,17.34,17.34,0,0,1,2.14,8.72,16.67,16.67,0,0,1-2.21,8.61,14.65,14.65,0,0,1-6.25,5.76,20.67,20.67,0,0,1-9.36,2h-9.14a.32.32,0,0,0-.37.37V580a.89.89,0,0,1-.9.89H186.56a.89.89,0,0,1-.9-.89V529.34a.89.89,0,0,1,.9-.9H208.2A18.85,18.85,0,0,1,217.22,530.54Zm-6.07,19.39a5.74,5.74,0,0,0,1.91-4.49,6,6,0,0,0-1.91-4.61,7.05,7.05,0,0,0-5-1.76h-7.72a.33.33,0,0,0-.37.38v11.83a.32.32,0,0,0,.37.37h7.72A7.12,7.12,0,0,0,211.15,549.93Z" style="fill:#ffd064"/><path d="M239.53,579.24a17.48,17.48,0,0,1-7.15-6.85,20.11,20.11,0,0,1-2.54-10.25v-15a19.65,19.65,0,0,1,2.54-10.07,17.58,17.58,0,0,1,7.15-6.81,22.54,22.54,0,0,1,10.67-2.44,22.79,22.79,0,0,1,10.71,2.44,17.48,17.48,0,0,1,7.18,6.81,19.65,19.65,0,0,1,2.55,10.07v15a20.12,20.12,0,0,1-2.55,10.25,17.38,17.38,0,0,1-7.18,6.85,22.67,22.67,0,0,1-10.71,2.44A22.43,22.43,0,0,1,239.53,579.24ZM256,568.72a8.62,8.62,0,0,0,2.21-6.21V547a8.71,8.71,0,0,0-2.21-6.18,7.57,7.57,0,0,0-5.8-2.36,7.49,7.49,0,0,0-5.73,2.36,8.71,8.71,0,0,0-2.21,6.18v15.5a8.62,8.62,0,0,0,2.21,6.21,7.54,7.54,0,0,0,5.73,2.33A7.62,7.62,0,0,0,256,568.72Z" style="fill:#ffd064"/><path d="M315.08,528.7a.9.9,0,0,1,.26.64v8.91a.89.89,0,0,1-.9.9h-13.1a.33.33,0,0,0-.38.37V580a.82.82,0,0,1-.26.63.84.84,0,0,1-.63.26H289.43a.82.82,0,0,1-.63-.26.83.83,0,0,1-.27-.63V539.52a.32.32,0,0,0-.37-.37H275.51a.88.88,0,0,1-.64-.26.86.86,0,0,1-.26-.64v-8.91a.86.86,0,0,1,.26-.64.88.88,0,0,1,.64-.26h38.93A.9.9,0,0,1,315.08,528.7Z" style="fill:#ffd064"/><path d="M348.88,580.1l-1.94-6.66c-.1-.2-.23-.3-.38-.3H329.49c-.15,0-.27.1-.37.3l-1.95,6.66a1,1,0,0,1-1.05.75H314.67a.83.83,0,0,1-.68-.26.81.81,0,0,1-.07-.78l16-50.62a.94.94,0,0,1,1-.75h14.15a1,1,0,0,1,1,.75l16.1,50.62a1,1,0,0,1,.07.37c0,.45-.27.67-.82.67H349.93A1,1,0,0,1,348.88,580.1Zm-16.47-16.54h11.16q.45,0,.3-.45l-5.69-19.24c-.05-.2-.13-.29-.23-.27a.37.37,0,0,0-.22.27l-5.62,19.24Q332,563.56,332.41,563.56Z" style="fill:#ffd064"/><path d="M374.53,579.06a17.32,17.32,0,0,1-7-6.74,19.74,19.74,0,0,1-2.51-10V546.94a19.52,19.52,0,0,1,2.51-10,17.36,17.36,0,0,1,7-6.7,22.13,22.13,0,0,1,10.52-2.4,23.05,23.05,0,0,1,10.48,2.29,17.24,17.24,0,0,1,7.07,6.25,16,16,0,0,1,2.51,8.76v.37a.88.88,0,0,1-.26.64.84.84,0,0,1-.64.26H393.58a.82.82,0,0,1-.63-.26.85.85,0,0,1-.27-.64,6.78,6.78,0,0,0-2.06-5,7.53,7.53,0,0,0-5.57-2.06,7.2,7.2,0,0,0-5.54,2.25,8.22,8.22,0,0,0-2.1,5.84v16.1a7.75,7.75,0,0,0,2.32,5.84,8,8,0,0,0,5.84,2.25,7.83,7.83,0,0,0,5.32-1.76,6.2,6.2,0,0,0,2-4.91V562a.34.34,0,0,0-.38-.38h-7.48a.88.88,0,0,1-.64-.26.86.86,0,0,1-.26-.64v-8.23a.86.86,0,0,1,.26-.64.88.88,0,0,1,.64-.26h19.16a.88.88,0,0,1,.64.26.9.9,0,0,1,.26.64v10.18a19.05,19.05,0,0,1-2.51,9.88,16.89,16.89,0,0,1-7,6.59,22.74,22.74,0,0,1-10.52,2.32A22.24,22.24,0,0,1,374.53,579.06Z" style="fill:#ffd064"/><path d="M448.58,538.81a.86.86,0,0,1-.64.26H424.43a.33.33,0,0,0-.37.38v9.21a.32.32,0,0,0,.37.37h15.05a.89.89,0,0,1,.9.9v8.76a.89.89,0,0,1-.9.9H424.43a.32.32,0,0,0-.37.37v9.89a.32.32,0,0,0,.37.37h23.51a.89.89,0,0,1,.9.9V580a.89.89,0,0,1-.9.89H412.52a.89.89,0,0,1-.89-.89V529.34a.89.89,0,0,1,.89-.9h35.42a.89.89,0,0,1,.9.9v8.84A.86.86,0,0,1,448.58,538.81Z" style="fill:#ffd064"/><path d="M481.86,580.18,473,560.26a.48.48,0,0,0-.45-.3h-4.94a.33.33,0,0,0-.37.38V580a.89.89,0,0,1-.9.89H455.73a.84.84,0,0,1-.64-.26.82.82,0,0,1-.26-.63V529.34a.86.86,0,0,1,.26-.64.88.88,0,0,1,.64-.26H478a18.1,18.1,0,0,1,8.69,2,14.29,14.29,0,0,1,5.8,5.73,17.25,17.25,0,0,1,2.06,8.5,15.19,15.19,0,0,1-2.47,8.69,13.94,13.94,0,0,1-6.89,5.31.36.36,0,0,0-.22.53l9.88,20.59a1.17,1.17,0,0,1,.15.44c0,.4-.28.6-.82.6H482.91A1.06,1.06,0,0,1,481.86,580.18Zm-14.6-40.73v10.63a.33.33,0,0,0,.37.38h8.31a6.49,6.49,0,0,0,4.49-1.54,5.19,5.19,0,0,0,1.73-4.08,5.39,5.39,0,0,0-1.73-4.19,6.37,6.37,0,0,0-4.49-1.58h-8.31A.33.33,0,0,0,467.26,539.45Z" style="fill:#ffd064"/></g></g></svg>